<svg width="20" height="21" viewBox="0 0 20 21" fill="none" xmlns="http://www.w3.org/2000/svg">
<path fill-rule="evenodd" clip-rule="evenodd" d="M14.0134 20.0033H5.66555C2.59919 20.0033 0.246786 18.8957 0.914978 14.438L1.69301 8.39685C2.10491 6.17259 3.52367 5.32133 4.76852 5.32133H14.947C16.2102 5.32133 17.5466 6.23667 18.0225 8.39685L18.8006 14.438C19.3681 18.3923 17.0797 20.0033 14.0134 20.0033Z" stroke="white" stroke-width="1.5" stroke-linecap="round" stroke-linejoin="round"/>
<path d="M14.1502 5.10166C14.1502 2.71558 12.216 0.781289 9.82988 0.781289V0.781289C8.68088 0.77642 7.57727 1.22945 6.76308 2.0402C5.94889 2.85096 5.4912 3.95264 5.49121 5.10166H5.49121" stroke="white" stroke-width="1.5" stroke-linecap="round" stroke-linejoin="round"/>
<path d="M12.796 9.60508H12.7502" stroke="white" stroke-width="1.5" stroke-linecap="round" stroke-linejoin="round"/>
<path d="M6.96492 9.60513H6.91916" stroke="white" stroke-width="1.5" stroke-linecap="round" stroke-linejoin="round"/>
</svg>
