<svg width="23" height="18" viewBox="0 0 23 18" fill="none" xmlns="http://www.w3.org/2000/svg">
<path fill-rule="evenodd" clip-rule="evenodd" d="M11.3866 10.914L11.4995 10.914L11.7521 10.9149C13.6827 10.9276 18.0946 11.1226 18.0946 14.113C18.0946 17.0837 13.8365 17.2775 11.7822 17.2901L11.0211 17.2901C9.09038 17.2774 4.6776 17.0826 4.6776 14.096C4.6776 11.1215 9.09038 10.9275 11.0211 10.9149L11.2737 10.914C11.3129 10.914 11.3505 10.914 11.3866 10.914ZM11.3866 12.414C9.0106 12.414 6.1776 12.706 6.1776 14.096C6.1776 15.4545 8.84151 15.7722 11.1694 15.7902L11.3866 15.791C13.7626 15.791 16.5946 15.5 16.5946 14.113C16.5946 12.709 13.7626 12.414 11.3866 12.414ZM19.3402 10.5082C21.7632 10.8712 22.2722 12.0092 22.2722 12.9002C22.2722 13.4442 22.0582 14.4372 20.6282 14.9822C20.5402 15.0152 20.4502 15.0312 20.3612 15.0312C20.0592 15.0312 19.7742 14.8472 19.6602 14.5482C19.5122 14.1612 19.7072 13.7272 20.0942 13.5802C20.7722 13.3222 20.7722 13.0372 20.7722 12.9002C20.7722 12.4622 20.2152 12.1562 19.1172 11.9922C18.7082 11.9302 18.4252 11.5492 18.4862 11.1382C18.5472 10.7282 18.9272 10.4552 19.3402 10.5082ZM4.286 11.1382C4.347 11.5492 4.064 11.9302 3.655 11.9922C2.557 12.1562 2 12.4622 2 12.9002C2 13.0372 2 13.3212 2.679 13.5802C3.066 13.7272 3.261 14.1612 3.113 14.5482C2.999 14.8472 2.714 15.0312 2.412 15.0312C2.323 15.0312 2.233 15.0152 2.145 14.9822C0.714 14.4362 0.5 13.4432 0.5 12.9002C0.5 12.0102 1.009 10.8712 3.433 10.5082C3.846 10.4562 4.224 10.7282 4.286 11.1382ZM11.3866 0.5C13.9066 0.5 15.9556 2.55 15.9556 5.069C15.9556 7.588 13.9066 9.638 11.3866 9.638H11.3596C10.1396 9.634 8.9966 9.156 8.1406 8.292C7.2826 7.429 6.8136 6.283 6.81856 5.066C6.81856 2.55 8.8676 0.5 11.3866 0.5ZM11.3866 2C9.6946 2 8.31858 3.377 8.31858 5.069C8.3156 5.889 8.6296 6.656 9.2046 7.235C9.7796 7.814 10.5456 8.135 11.3616 8.138L11.3866 8.888V8.138C13.0786 8.138 14.4556 6.762 14.4556 5.069C14.4556 3.377 13.0786 2 11.3866 2ZM17.5756 1.4795C19.3336 1.7685 20.6106 3.2725 20.6106 5.0555C20.6066 6.8505 19.2656 8.3905 17.4906 8.6395C17.4556 8.6445 17.4206 8.6465 17.3866 8.6465C17.0186 8.6465 16.6976 8.3755 16.6446 8.0005C16.5876 7.5895 16.8726 7.2105 17.2836 7.1535C18.3236 7.0075 19.1086 6.1055 19.1106 5.0535C19.1106 4.0105 18.3626 3.1285 17.3316 2.9595C16.9236 2.8925 16.6466 2.5065 16.7136 2.0975C16.7816 1.6885 17.1646 1.4145 17.5756 1.4795ZM6.0596 2.0975C6.1266 2.5065 5.8496 2.8925 5.4416 2.9595C4.4106 3.1285 3.6626 4.0105 3.6626 5.0555C3.6646 6.1055 4.4496 7.0085 5.4886 7.1535C5.8996 7.2105 6.1846 7.5895 6.1276 8.0005C6.0746 8.3755 5.7536 8.6465 5.3856 8.6465C5.3516 8.6465 5.3166 8.6445 5.2816 8.6395C3.5066 8.3905 2.1666 6.8505 2.1626 5.0575C2.1626 3.2725 3.4396 1.7685 5.1976 1.4795C5.6186 1.4135 5.9916 1.6905 6.0596 2.0975Z" fill="white"/>
</svg>
