<svg width="24" height="19" viewBox="0 0 24 19" fill="none" xmlns="http://www.w3.org/2000/svg">
<path fill-rule="evenodd" clip-rule="evenodd" d="M1.25083 0H22.4978C23.1866 0 23.75 0.659349 23.75 1.46539V1.62289C23.75 2.42894 23.1866 3.08829 22.4978 3.08829H1.25083C0.562083 3.08829 0 2.42894 0 1.62289V1.46539C0 0.659349 0.562083 0 1.25083 0ZM22.4978 7.72128H1.25083C0.562083 7.72128 0 8.38062 0 9.18666V9.34417C0 10.1502 0.562083 10.8096 1.25083 10.8096H22.4978C23.1866 10.8096 23.75 10.1502 23.75 9.34417V9.18666C23.75 8.38062 23.1866 7.72128 22.4978 7.72128ZM16.8734 15.4413H0.938125C0.421562 15.4413 0 16.1006 0 16.9066V17.0642C0 17.8702 0.421562 18.5295 0.938125 18.5295H16.8734C17.3899 18.5295 17.8125 17.8702 17.8125 17.0642V16.9066C17.8125 16.1006 17.3899 15.4413 16.8734 15.4413Z" fill="#E8F0FC"/>
</svg>
