<svg width="18" height="20" viewBox="0 0 18 20" fill="none" xmlns="http://www.w3.org/2000/svg">
<path fill-rule="evenodd" clip-rule="evenodd" d="M10.9741 0C11.017 0 11.0592 0.00361613 11.1001 0.0105603L11.237 0.0114C11.441 0.0114 11.636 0.0944 11.778 0.2414L16.843 5.5184C16.977 5.6574 17.0521 5.8444 17.0521 6.0374V15.2034C17.07 17.7124 15.116 19.7624 12.603 19.8644L4.584 19.8654H4.475C2.02506 19.81 0.0601624 17.8286 0.000301831 15.4026L0 4.4904C0.058 2.0094 2.107 0.0114 4.57 0.0114L10.8481 0.0105603C10.889 0.00361613 10.9312 0 10.9741 0ZM10.224 1.511L4.572 1.5114C2.915 1.5114 1.539 2.8534 1.5 4.5084V15.2034C1.463 16.9164 2.813 18.3274 4.509 18.3654H12.573C14.242 18.2964 15.564 16.9094 15.5521 15.2094L15.552 6.983L13.5421 6.984C11.7121 6.979 10.2241 5.487 10.2241 3.659L10.224 1.511ZM10.7873 12.6081C11.2013 12.6081 11.5373 12.9441 11.5373 13.3581C11.5373 13.7721 11.2013 14.1081 10.7873 14.1081H5.3873C4.9733 14.1081 4.6373 13.7721 4.6373 13.3581C4.6373 12.9441 4.9733 12.6081 5.3873 12.6081H10.7873ZM8.7424 8.8561C9.1564 8.8561 9.4924 9.1921 9.4924 9.6061C9.4924 10.0201 9.1564 10.3561 8.7424 10.3561H5.3864C4.9724 10.3561 4.6364 10.0201 4.6364 9.6061C4.6364 9.1921 4.9724 8.8561 5.3864 8.8561H8.7424ZM11.724 2.352L11.7241 3.659C11.7241 4.663 12.5411 5.481 13.5441 5.484L14.73 5.483L11.724 2.352Z" fill="white"/>
</svg>
