<svg width="26" height="26" viewBox="0 0 26 26" fill="none" xmlns="http://www.w3.org/2000/svg">
<rect width="26" height="26" rx="13" fill="#27B69C"/>
<path d="M14.02 12.7013L14.0244 8.68364C14.0244 8.5075 13.9544 8.33856 13.8299 8.214C13.7053 8.08944 13.5364 8.01946 13.3602 8.01944C13.1841 8.01943 13.0152 8.08939 12.8906 8.21393C12.7661 8.33848 12.6961 8.5074 12.6961 8.68355L12.7011 12.7012L8.68344 12.6962C8.5073 12.6962 8.33837 12.7662 8.21383 12.8907C8.08929 13.0153 8.01932 13.1842 8.01934 13.3603C8.01935 13.5365 8.08933 13.7054 8.2139 13.83C8.33846 13.9545 8.50739 14.0245 8.68354 14.0245L12.7012 14.0201L12.6968 18.0378C12.6964 18.1251 12.7134 18.2116 12.7466 18.2924C12.7799 18.3731 12.8288 18.4465 12.8906 18.5082C12.9523 18.57 13.0257 18.6189 13.1064 18.6521C13.1871 18.6854 13.2737 18.7023 13.361 18.702C13.4483 18.7024 13.5348 18.6854 13.6156 18.6522C13.6963 18.6189 13.7697 18.57 13.8314 18.5083C13.8931 18.4466 13.942 18.3732 13.9753 18.2925C14.0085 18.2117 14.0255 18.1252 14.0251 18.0379L14.0201 14.0202L18.0378 14.0252C18.1251 14.0256 18.2116 14.0086 18.2924 13.9754C18.3731 13.9421 18.4464 13.8932 18.5082 13.8315C18.5699 13.7698 18.6188 13.6964 18.6521 13.6157C18.6853 13.5349 18.7022 13.4484 18.7019 13.3611C18.7022 13.2738 18.6853 13.1873 18.652 13.1065C18.6188 13.0258 18.5699 12.9524 18.5081 12.8907C18.4464 12.8289 18.373 12.78 18.2923 12.7467C18.2115 12.7135 18.125 12.6965 18.0377 12.6969L14.02 12.7013Z" fill="white" stroke="white"/>
</svg>
