<svg width="16" height="18" viewBox="0 0 16 18" fill="none" xmlns="http://www.w3.org/2000/svg">
<path fill-rule="evenodd" clip-rule="evenodd" d="M6.87702 13.457L8.90302 14.99V10.437C8.90302 10.271 8.94501 10.108 9.02302 9.962L13.323 2H2.64301L6.76502 9.978C6.83902 10.12 6.87702 10.278 6.87702 10.437V13.457ZM9.90302 18C9.69001 18 9.47701 17.932 9.30001 17.797L5.27401 14.752C5.02401 14.563 4.87702 14.268 4.87702 13.955V10.681L0.112015 1.459C-0.048985 1.149 -0.0359851 0.778 0.146015 0.48C0.327015 0.182 0.651015 0 1.00001 0H15C15.352 0 15.678 0.185 15.859 0.488C16.039 0.79 16.047 1.165 15.88 1.475L10.903 10.69V17C10.903 17.379 10.689 17.726 10.349 17.895C10.208 17.965 10.055 18 9.90302 18Z" fill="#2E3A59"/>
</svg>
