<svg width="32" height="32" viewBox="0 0 32 32" fill="none" xmlns="http://www.w3.org/2000/svg">
<path fill-rule="evenodd" clip-rule="evenodd" d="M9.62624 7.99998C8.47424 7.99998 7.39424 8.44531 6.58624 9.25465C4.90891 10.9346 4.90891 13.6693 6.58757 15.352L15.9996 24.78L25.4129 15.352C27.0916 13.6693 27.0916 10.9346 25.4129 9.25465C23.7969 7.63465 20.9489 7.63731 19.3329 9.25465L16.9436 11.648C16.4422 12.1506 15.5569 12.1506 15.0556 11.648L12.6662 9.25331C11.8582 8.44531 10.7796 7.99998 9.62624 7.99998ZM15.9996 28C15.6462 28 15.3062 27.86 15.0569 27.608L4.69957 17.2346C1.98491 14.5146 1.98491 10.0893 4.69957 7.36931C6.01157 6.05731 7.76091 5.33331 9.62624 5.33331C11.4916 5.33331 13.2422 6.05731 14.5529 7.36931L15.9996 8.81865L17.4462 7.37065C18.7582 6.05731 20.5076 5.33331 22.3742 5.33331C24.2382 5.33331 25.9889 6.05731 27.2996 7.36931C30.0156 10.0893 30.0156 14.5146 27.3009 17.2346L16.9436 27.6093C16.6929 27.86 16.3542 28 15.9996 28Z" fill="#2E3A59"/>
<path d="M6.58624 9.25465L6.76316 9.43128L6.76316 9.43128L6.58624 9.25465ZM6.58757 15.352L6.41059 15.5285L6.41065 15.5286L6.58757 15.352ZM15.9996 24.78L15.8226 24.9566L15.9996 25.1338L16.1765 24.9566L15.9996 24.78ZM25.4129 15.352L25.5898 15.5286L25.5899 15.5285L25.4129 15.352ZM25.4129 9.25465L25.2359 9.4312L25.2361 9.43135L25.4129 9.25465ZM19.3329 9.25465L19.1561 9.07794L19.156 9.07802L19.3329 9.25465ZM16.9436 11.648L16.7667 11.4714L16.7666 11.4714L16.9436 11.648ZM15.0556 11.648L15.2326 11.4714L15.2325 11.4714L15.0556 11.648ZM12.6662 9.25331L12.8432 9.07673L12.843 9.07654L12.6662 9.25331ZM15.0569 27.608L15.2346 27.4321L15.2338 27.4313L15.0569 27.608ZM4.69957 17.2346L4.52262 17.4112L4.52266 17.4113L4.69957 17.2346ZM4.69957 7.36931L4.5228 7.19254L4.52262 7.19271L4.69957 7.36931ZM14.5529 7.36931L14.7298 7.1927L14.7298 7.19263L14.5529 7.36931ZM15.9996 8.81865L15.8226 8.99526L15.9995 9.17244L16.1764 8.99534L15.9996 8.81865ZM17.4462 7.37065L17.6231 7.54734L17.6231 7.54733L17.4462 7.37065ZM27.2996 7.36931L27.4765 7.19267L27.4764 7.19263L27.2996 7.36931ZM27.3009 17.2346L27.4778 17.4113L27.4779 17.4112L27.3009 17.2346ZM16.9436 27.6093L17.1204 27.7861L17.1205 27.7859L16.9436 27.6093ZM9.62624 7.74998C8.40851 7.74998 7.26467 8.22126 6.40932 9.07802L6.76316 9.43128C7.52382 8.66937 8.53998 8.24998 9.62624 8.24998V7.74998ZM6.40932 9.07801C4.63446 10.8557 4.63466 13.7484 6.41059 15.5285L6.76456 15.1754C5.18316 13.5902 5.18336 11.0136 6.76316 9.43128L6.40932 9.07801ZM6.41065 15.5286L15.8226 24.9566L16.1765 24.6034L6.7645 15.1754L6.41065 15.5286ZM16.1765 24.9566L25.5898 15.5286L25.236 15.1753L15.8227 24.6033L16.1765 24.9566ZM25.5899 15.5285C27.3658 13.7484 27.366 10.8556 25.5898 9.07794L25.2361 9.43135C26.8171 11.0137 26.8173 13.5903 25.2359 15.1754L25.5899 15.5285ZM25.5899 9.07809C23.876 7.35999 20.8695 7.36306 19.1561 9.07794L19.5098 9.43135C21.0283 7.91156 23.7178 7.90931 25.2359 9.4312L25.5899 9.07809ZM19.156 9.07802L16.7667 11.4714L17.1205 11.8246L19.5098 9.43127L19.156 9.07802ZM16.7666 11.4714C16.3629 11.8762 15.6362 11.8762 15.2326 11.4714L14.8786 11.8245C15.4776 12.4251 16.5216 12.4251 17.1206 11.8245L16.7666 11.4714ZM15.2325 11.4714L12.8432 9.07673L12.4893 9.42989L14.8786 11.8246L15.2325 11.4714ZM12.843 9.07654C11.9877 8.22126 10.8453 7.74998 9.62624 7.74998V8.24998C10.7138 8.24998 11.7287 8.66936 12.4895 9.43009L12.843 9.07654ZM15.9996 27.75C15.7122 27.75 15.4364 27.6361 15.2346 27.4321L14.8792 27.7838C15.176 28.0838 15.5803 28.25 15.9996 28.25V27.75ZM15.2338 27.4313L4.87649 17.058L4.52266 17.4113L14.88 27.7846L15.2338 27.4313ZM4.87652 17.058C2.25926 14.4356 2.25926 10.1683 4.87652 7.54592L4.52262 7.19271C1.71056 10.0103 1.71056 14.5937 4.52262 17.4112L4.87652 17.058ZM4.87635 7.54609C6.14129 6.28115 7.82697 5.58331 9.62624 5.58331V5.08331C7.69485 5.08331 5.88185 5.83348 4.5228 7.19254L4.87635 7.54609ZM9.62624 5.58331C11.4256 5.58331 13.1125 6.28119 14.376 7.546L14.7298 7.19263C13.372 5.83343 11.5576 5.08331 9.62624 5.08331V5.58331ZM14.376 7.54593L15.8226 8.99526L16.1765 8.64203L14.7298 7.1927L14.376 7.54593ZM16.1764 8.99534L17.6231 7.54734L17.2694 7.19395L15.8227 8.64195L16.1764 8.99534ZM17.6231 7.54733C18.888 6.28115 20.5736 5.58331 22.3742 5.58331V5.08331C20.4415 5.08331 18.6285 5.83348 17.2694 7.19396L17.6231 7.54733ZM22.3742 5.58331C24.1722 5.58331 25.8592 6.28118 27.1227 7.546L27.4764 7.19263C26.1186 5.83345 24.3043 5.08331 22.3742 5.08331V5.58331ZM27.1227 7.54596C29.7412 10.1684 29.7412 14.4356 27.124 17.058L27.4779 17.4112C30.2899 14.5936 30.2899 10.0103 27.4765 7.19267L27.1227 7.54596ZM27.124 17.058L16.7667 27.4327L17.1205 27.7859L27.4778 17.4113L27.124 17.058ZM16.7668 27.4325C16.5631 27.6362 16.2881 27.75 15.9996 27.75V28.25C16.4204 28.25 16.8227 28.0837 17.1204 27.7861L16.7668 27.4325Z" fill="#F3F4F6"/>
</svg>
