<svg width="28" height="28" viewBox="0 0 28 28" fill="none" xmlns="http://www.w3.org/2000/svg">
<rect x="28" y="28" width="28" height="28" rx="14" transform="rotate(-180 28 28)" fill="#6F82B5" fill-opacity="0.2"/>
<path fill-rule="evenodd" clip-rule="evenodd" d="M20.0417 12.7083L10.6486 12.7083L13.5247 9.25667C13.8049 8.921 13.759 8.42146 13.4234 8.142C13.0869 7.86175 12.5881 7.90767 12.3087 8.24333L8.35035 12.9933C8.31948 13.0305 8.30364 13.0741 8.28069 13.1152C8.26169 13.1485 8.23873 13.177 8.22448 13.2134C8.18885 13.3045 8.16748 13.4002 8.16748 13.4968C8.16748 13.4976 8.16669 13.4992 8.16669 13.5C8.16669 13.5008 8.16748 13.5024 8.16748 13.5032C8.16748 13.5997 8.18885 13.6955 8.22448 13.7866C8.23873 13.823 8.26169 13.8515 8.28069 13.8847C8.30364 13.9259 8.31948 13.9695 8.35035 14.0067L12.3087 18.7567C12.4654 18.9443 12.6903 19.0417 12.9167 19.0417C13.0956 19.0417 13.2753 18.9815 13.4234 18.858C13.759 18.5785 13.8049 18.079 13.5247 17.7433L10.6486 14.2917L20.0417 14.2917C20.4787 14.2917 20.8334 13.937 20.8334 13.5C20.8334 13.063 20.4787 12.7083 20.0417 12.7083Z" fill="#3D455B"/>
</svg>
