<svg width="36" height="36" viewBox="0 0 36 36" fill="none" xmlns="http://www.w3.org/2000/svg">
<path d="M13.5916 24.1996C13.8707 25.5649 14.7665 26.7236 16.0172 27.3378C17.2681 27.9519 18.7327 27.9519 19.9836 27.3378C21.2344 26.7237 22.1302 25.5649 22.4092 24.1996H25.4091C26.5474 24.198 27.6383 23.7446 28.4424 22.939C29.2464 22.1334 29.6978 21.0415 29.6974 19.9035C29.697 18.7654 29.2449 17.6738 28.4404 16.8688L27.9351 16.3648C27.4558 15.8846 27.1097 15.2878 26.9309 14.6333L24.9316 7.2939C24.3747 5.25224 22.9462 3.56009 21.0268 2.66852C19.1077 1.77716 16.8931 1.77716 14.9737 2.66852C13.0544 3.56009 11.6258 5.25219 11.0689 7.2939L9.06744 14.6333C8.88845 15.2878 8.54231 15.8846 8.06299 16.3648L7.55775 16.8688C6.75279 17.6744 6.30058 18.7666 6.30078 19.9055C6.30098 21.0444 6.75339 22.1364 7.55878 22.9418C8.36394 23.747 9.45623 24.1996 10.5951 24.1996H13.5916ZM18.0004 25.9996C17.444 25.9978 16.9016 25.8238 16.4478 25.5016C15.9939 25.1793 15.651 24.7245 15.466 24.1996H20.5349C20.3499 24.7245 20.0069 25.1794 19.5531 25.5016C19.0993 25.8238 18.5569 25.9978 18.0004 25.9996ZM8.10044 19.9048C8.09783 19.2422 8.361 18.6062 8.83129 18.1396L9.33533 17.6343C10.0352 16.9334 10.5403 16.0619 10.8004 15.1059L12.8055 7.76702C13.2228 6.23661 14.2936 4.96818 15.7319 4.30002C17.1705 3.63165 18.8303 3.63165 20.2689 4.30002C21.7073 4.96818 22.778 6.23661 23.1953 7.76702L25.2004 15.1059C25.4611 16.0631 25.9674 16.9356 26.6691 17.6367L27.1732 18.142C27.6429 18.608 27.906 19.2431 27.904 19.9048C27.903 20.5661 27.6398 21.2002 27.1722 21.6678C26.7045 22.1355 26.0707 22.3987 25.4092 22.3995H10.5952C9.93364 22.3987 9.29963 22.1355 8.83215 21.6678C8.36447 21.2001 8.1013 20.5661 8.10032 19.9048H8.10044Z" fill="#2E3A59"/>
<circle cx="30" cy="6" r="6" fill="#FD346E"/>
<path d="M28.2816 9V8.384L30.1616 6.368C30.4229 6.08533 30.6096 5.82933 30.7216 5.6C30.8389 5.37067 30.8976 5.13867 30.8976 4.904C30.8976 4.296 30.5402 3.992 29.8256 3.992C29.2816 3.992 28.7936 4.19733 28.3616 4.608L28.0656 3.976C28.2789 3.768 28.5509 3.60267 28.8816 3.48C29.2122 3.352 29.5562 3.288 29.9136 3.288C30.4949 3.288 30.9402 3.42133 31.2496 3.688C31.5642 3.95467 31.7216 4.336 31.7216 4.832C31.7216 5.168 31.6389 5.496 31.4736 5.816C31.3136 6.136 31.0602 6.47733 30.7136 6.84L29.3216 8.304H31.9456V9H28.2816Z" fill="white"/>
</svg>
