<svg width="28" height="28" viewBox="0 0 28 28" fill="none" xmlns="http://www.w3.org/2000/svg">
<rect width="28" height="28" rx="14" fill="#6F82B5" fill-opacity="0.2"/>
<path fill-rule="evenodd" clip-rule="evenodd" d="M7.95831 14.2917L17.3514 14.2917L14.4753 17.7433C14.1951 18.079 14.241 18.5785 14.5766 18.858C14.9131 19.1383 15.4119 19.0923 15.6913 18.7567L19.6496 14.0067C19.6805 13.9695 19.6964 13.9259 19.7193 13.8848C19.7383 13.8515 19.7613 13.823 19.7755 13.7866C19.8111 13.6955 19.8325 13.5998 19.8325 13.5032C19.8325 13.5024 19.8333 13.5008 19.8333 13.5C19.8333 13.4992 19.8325 13.4976 19.8325 13.4968C19.8325 13.4003 19.8111 13.3045 19.7755 13.2134C19.7613 13.177 19.7383 13.1485 19.7193 13.1153C19.6964 13.0741 19.6805 13.0305 19.6496 12.9933L15.6913 8.24334C15.5346 8.05571 15.3097 7.95834 15.0833 7.95834C14.9044 7.95834 14.7247 8.0185 14.5766 8.142C14.241 8.42146 14.1951 8.921 14.4753 9.25667L17.3514 12.7083L7.95831 12.7083C7.52131 12.7083 7.16665 13.063 7.16665 13.5C7.16665 13.937 7.52131 14.2917 7.95831 14.2917Z" fill="#3D455B"/>
</svg>
